HIERARCHY
ROOT pelvis
{
  OFFSET 0 100 0
  CHANNELS 6 Xposition Yposition Zposition Zrotation Xrotation Yrotation
  JOINT pelvis_right_femur
  {
    OFFSET -10.78128 -3.44521 -0.5502486
    CHANNELS 3 Zrotation Xrotation Yrotation
    JOINT right_femur_tibia
    {
      OFFSET -0.8047443 -44.0398 -0.1307829
      CHANNELS 3 Zrotation Xrotation Yrotation
      JOINT right_tibia_foot
      {
        OFFSET 3.006224 -47.83518 -5
        CHANNELS 3 Zrotation Xrotation Yrotation
        End Site
        {
          OFFSET 0 -5 15
        }
      }
    }
  }
  JOINT pelvis_left_femur
  {
    OFFSET 10.78128 -3.44521 -0.5502486
    CHANNELS 3 Zrotation Xrotation Yrotation
    JOINT left_femur_tibia
    {
      OFFSET 0.8047443 -44.0398 -0.1307829
      CHANNELS 3 Zrotation Xrotation Yrotation
      JOINT left_tibia_foot
      {
        OFFSET -4.370144 -48.10324 -4.275266
        CHANNELS 3 Zrotation Xrotation Yrotation
        End Site
        {
          OFFSET 0 -5 15
        }
      }
    }
  }
  JOINT pelvis_spine1
  {
    OFFSET 0 6.468898 -3.129235
    CHANNELS 3 Zrotation Xrotation Yrotation
    JOINT spine1
    {
      OFFSET 0 23.15396 4.99043
      CHANNELS 3 Zrotation Xrotation Yrotation
      JOINT spine2
      {
        OFFSET 0 20.79997 -5.064912
        CHANNELS 3 Zrotation Xrotation Yrotation
        JOINT neck
        {
          OFFSET 0 14.38658 9.616178
          CHANNELS 3 Zrotation Xrotation Yrotation
          End Site
          {
            OFFSET 0 20 0
          }
        }
      }
      JOINT right_manubrium
      {
        OFFSET -5.722621 16.35077 3.967754
        CHANNELS 3 Zrotation Xrotation Yrotation
        JOINT right_clavicle
        {
          OFFSET -13.16364 1.694482 -4.693211
          CHANNELS 3 Zrotation Xrotation Yrotation
          JOINT right_humerus
          {
            OFFSET -28.5034 -0.3100689 -2.792744
            CHANNELS 3 Zrotation Xrotation Yrotation
            JOINT right_radius
            {
              OFFSET -25.15693 0.02248979 -1.271978
              CHANNELS 3 Zrotation Xrotation Yrotation
              End Site
              {
                OFFSET -15 0 0
              }
            }
          }
        }
      }
      JOINT left_manubrium
      {
        OFFSET 5.722621 16.35077 3.967754
        CHANNELS 3 Zrotation Xrotation Yrotation
        JOINT left_clavicle
        {
          OFFSET 13.16364 1.694482 -4.693211
          CHANNELS 3 Zrotation Xrotation Yrotation
          JOINT left_humerus
          {
            OFFSET 29.39168 -1.063119 -2.237045
            CHANNELS 3 Zrotation Xrotation Yrotation
            JOINT left_radius
            {
              OFFSET 24.59957 -0.9528479 0.9047498
              CHANNELS 3 Zrotation Xrotation Yrotation
              End Site
              {
                OFFSET 15 -0 -0
              }
            }
          }
        }
      }
    }
  }
}
MOTION
Frames: 7
Frame Time: 0.0416666666667
28.26352 104.0254 416.1091 -1.306967 -14.40165 3.990024 8.111713 7.480646 -4.51909 -0 17.14567 -0 -7.797889 0.9326653 -0.4745446 1.933554 -3.480392 -7.063563 -0 23.43457 -0 -0.603883 -3.925012 15.56366 4.764073 -5.829018 6.075497 -0.4154528 19.30375 -5.244145 2.680315 23.05061 3.222631 -1.024075 -21.0633 8.094064 -7.156143 -32.66277 14.00222 98.54081 -0.8506978 -15.60633 -0 0 20.03377 -34.67884 20.48737 19.70326 -0.5314383 -24.51961 -14.35124 -99.28692 19.32432 39.79791 0 0 -16.3096 -1.041693 24.41052 14.86147
29.42739 104.0244 421.8866 -1.525046 -14.38064 3.112603 8.111713 7.480646 -4.51909 -0 17.14567 -0 -7.797889 0.9326653 -0.4745446 1.933554 -3.480392 -7.063563 -0 23.43457 -0 -0.603883 -3.925012 15.56366 4.764073 -5.829018 6.075497 -0.4154528 19.30375 -5.244145 2.680315 23.05061 3.222631 -1.024075 -21.0633 8.094064 -7.156143 -32.66277 14.00222 98.54081 -0.8506978 -15.60633 -0 0 20.03377 -34.67884 20.48737 19.70326 -0.5314383 -24.51961 -14.35124 -99.28692 19.32432 39.79791 0 0 -16.3096 -1.041693 24.41052 14.86147
30.50542 104.0233 427.6807 -1.742745 -14.3564 2.23536 8.111713 7.480646 -4.51909 -0 17.14567 -0 -7.797889 0.9326653 -0.4745446 1.933554 -3.480392 -7.063563 -0 23.43457 -0 -0.603883 -3.925012 15.56366 4.764073 -5.829018 6.075497 -0.4154528 19.30375 -5.244145 2.680315 23.05061 3.222631 -1.024075 -21.0633 8.094064 -7.156143 -32.66277 14.00222 98.54081 -0.8506978 -15.60633 -0 0 20.03377 -34.67884 20.48737 19.70326 -0.5314383 -24.51961 -14.35124 -99.28692 19.32432 39.79791 0 0 -16.3096 -1.041693 24.41052 14.86147
31.49735 104.0223 433.4902 -1.96001 -14.32894 1.358319 8.111713 7.480646 -4.51909 -0 17.14567 -0 -7.797889 0.9326653 -0.4745446 1.933554 -3.480392 -7.063563 -0 23.43457 -0 -0.603883 -3.925012 15.56366 4.764073 -5.829018 6.075497 -0.4154528 19.30375 -5.244145 2.680315 23.05061 3.222631 -1.024075 -21.0633 8.094064 -7.156143 -32.66277 14.00222 98.54081 -0.8506978 -15.60633 -0 0 20.03377 -34.67884 20.48737 19.70326 -0.5314383 -24.51961 -14.35124 -99.28692 19.32432 39.79791 0 0 -16.3096 -1.041693 24.41052 14.86147
32.40298 104.0213 439.3138 -2.176787 -14.29825 0.4815054 8.111713 7.480646 -4.51909 -0 17.14567 -0 -7.797889 0.9326653 -0.4745446 1.933554 -3.480392 -7.063563 -0 23.43457 -0 -0.603883 -3.925012 15.56366 4.764073 -5.829018 6.075497 -0.4154528 19.30375 -5.244145 2.680315 23.05061 3.222631 -1.024075 -21.0633 8.094064 -7.156143 -32.66277 14.00222 98.54081 -0.8506978 -15.60633 -0 0 20.03377 -34.67884 20.48737 19.70326 -0.5314383 -24.51961 -14.35124 -99.28692 19.32432 39.79791 0 0 -16.3096 -1.041693 24.41052 14.86147
33.2221 104.0202 445.1501 -2.393024 -14.26436 -0.3950564 8.111713 7.480646 -4.51909 -0 17.14567 -0 -7.797889 0.9326653 -0.4745446 1.933554 -3.480392 -7.063563 -0 23.43457 -0 -0.603883 -3.925012 15.56366 4.764073 -5.829018 6.075497 -0.4154528 19.30375 -5.244145 2.680315 23.05061 3.222631 -1.024075 -21.0633 8.094064 -7.156143 -32.66277 14.00222 98.54081 -0.8506978 -15.60633 -0 0 20.03377 -34.67884 20.48737 19.70326 -0.5314383 -24.51961 -14.35124 -99.28692 19.32432 39.79791 0 0 -16.3096 -1.041693 24.41052 14.86147
33.95453 104.0192 450.998 -2.608666 -14.22726 -1.271342 8.111713 7.480646 -4.51909 -0 17.14567 -0 -7.797889 0.9326653 -0.4745446 1.933554 -3.480392 -7.063563 -0 23.43457 -0 -0.603883 -3.925012 15.56366 4.764073 -5.829018 6.075497 -0.4154528 19.30375 -5.244145 2.680315 23.05061 3.222631 -1.024075 -21.0633 8.094064 -7.156143 -32.66277 14.00222 98.54081 -0.8506978 -15.60633 -0 0 20.03377 -34.67884 20.48737 19.70326 -0.5314383 -24.51961 -14.35124 -99.28692 19.32432 39.79791 0 0 -16.3096 -1.041693 24.41052 14.86147
